<svg width="14" height="14" viewBox="0 0 14 14" fill="none" xmlns="http://www.w3.org/2000/svg">
<path d="M4.80659 4.14004L6.33325 2.60671V9.00004C6.33325 9.17685 6.40349 9.34642 6.52851 9.47145C6.65354 9.59647 6.82311 9.66671 6.99992 9.66671C7.17673 9.66671 7.3463 9.59647 7.47132 9.47145C7.59635 9.34642 7.66659 9.17685 7.66659 9.00004V2.60671L9.19325 4.14004C9.25523 4.20253 9.32896 4.25212 9.4102 4.28597C9.49144 4.31982 9.57858 4.33724 9.66659 4.33724C9.75459 4.33724 9.84173 4.31982 9.92297 4.28597C10.0042 4.25212 10.0779 4.20253 10.1399 4.14004C10.2024 4.07807 10.252 4.00433 10.2858 3.92309C10.3197 3.84185 10.3371 3.75472 10.3371 3.66671C10.3371 3.5787 10.3197 3.49156 10.2858 3.41033C10.252 3.32909 10.2024 3.25535 10.1399 3.19338L7.47325 0.526709C7.40985 0.466016 7.33509 0.418439 7.25325 0.386709C7.09094 0.320031 6.90889 0.320031 6.74659 0.386709C6.66475 0.418439 6.58999 0.466016 6.52659 0.526709L3.85992 3.19338C3.79776 3.25554 3.74845 3.32933 3.71481 3.41054C3.68117 3.49176 3.66386 3.5788 3.66386 3.66671C3.66386 3.75462 3.68117 3.84166 3.71481 3.92288C3.74845 4.00409 3.79776 4.07788 3.85992 4.14004C3.92208 4.2022 3.99587 4.25151 4.07709 4.28515C4.1583 4.31879 4.24535 4.3361 4.33325 4.3361C4.42116 4.3361 4.5082 4.31879 4.58942 4.28515C4.67063 4.25151 4.74443 4.2022 4.80659 4.14004ZM12.9999 7.00004C12.8231 7.00004 12.6535 7.07028 12.5285 7.1953C12.4035 7.32033 12.3333 7.4899 12.3333 7.66671V11.6667C12.3333 11.8435 12.263 12.0131 12.138 12.1381C12.013 12.2631 11.8434 12.3334 11.6666 12.3334H2.33325C2.15644 12.3334 1.98687 12.2631 1.86185 12.1381C1.73682 12.0131 1.66659 11.8435 1.66659 11.6667V7.66671C1.66659 7.4899 1.59635 7.32033 1.47132 7.1953C1.3463 7.07028 1.17673 7.00004 0.999919 7.00004C0.823108 7.00004 0.653538 7.07028 0.528514 7.1953C0.40349 7.32033 0.333252 7.4899 0.333252 7.66671V11.6667C0.333252 12.1971 0.543966 12.7059 0.919038 13.0809C1.29411 13.456 1.80282 13.6667 2.33325 13.6667H11.6666C12.197 13.6667 12.7057 13.456 13.0808 13.0809C13.4559 12.7059 13.6666 12.1971 13.6666 11.6667V7.66671C13.6666 7.4899 13.5963 7.32033 13.4713 7.1953C13.3463 7.07028 13.1767 7.00004 12.9999 7.00004Z" fill="#391F75"/>
</svg>
